<mxfile host="app.diagrams.net" modified="2021-01-23T20:33:17.054Z" agent="5.0 (Windows NT 10.0; Win64; x64) AppleWebKit/537.36 (KHTML, like Gecko) Chrome/87.0.4280.141 Safari/537.36" etag="C3vS1Ru_IekkegL0QLUL" version="14.1.9" type="github" pages="2">
  <diagram id="IgOOr7WAQwyWSf3Zi6I-" name="Page-1">
    <mxGraphModel dx="1422" dy="745" grid="1" gridSize="10" guides="1" tooltips="1" connect="1" arrows="1" fold="1" page="1" pageScale="1" pageWidth="1169" pageHeight="827" math="0" shadow="0">
      <root>
        <mxCell id="0" />
        <mxCell id="1" parent="0" />
        <mxCell id="rF7Z-2SYWHVIbqaT1fd9-1" value="" style="endArrow=classic;html=1;sketch=1;" edge="1" parent="1">
          <mxGeometry width="50" height="50" relative="1" as="geometry">
            <mxPoint x="100" y="110" as="sourcePoint" />
            <mxPoint x="1090" y="110" as="targetPoint" />
          </mxGeometry>
        </mxCell>
        <mxCell id="rF7Z-2SYWHVIbqaT1fd9-2" value="" style="endArrow=classic;html=1;sketch=1;" edge="1" parent="1">
          <mxGeometry width="50" height="50" relative="1" as="geometry">
            <mxPoint x="100" y="200" as="sourcePoint" />
            <mxPoint x="1090" y="200" as="targetPoint" />
          </mxGeometry>
        </mxCell>
        <mxCell id="rF7Z-2SYWHVIbqaT1fd9-4" value="&lt;font style=&quot;font-size: 25px&quot;&gt;left&lt;/font&gt;" style="text;html=1;strokeColor=none;fillColor=none;align=center;verticalAlign=middle;whiteSpace=wrap;rounded=0;" vertex="1" parent="1">
          <mxGeometry x="30" y="90" width="40" height="20" as="geometry" />
        </mxCell>
        <mxCell id="rF7Z-2SYWHVIbqaT1fd9-5" value="&lt;font style=&quot;font-size: 25px&quot;&gt;right&lt;/font&gt;" style="text;html=1;strokeColor=none;fillColor=none;align=center;verticalAlign=middle;whiteSpace=wrap;rounded=0;" vertex="1" parent="1">
          <mxGeometry x="30" y="180" width="40" height="20" as="geometry" />
        </mxCell>
        <mxCell id="rF7Z-2SYWHVIbqaT1fd9-6" value="" style="shape=message;html=1;whiteSpace=wrap;html=1;outlineConnect=0;sketch=1;" vertex="1" parent="1">
          <mxGeometry x="150" y="60" width="40" height="30" as="geometry" />
        </mxCell>
        <mxCell id="rF7Z-2SYWHVIbqaT1fd9-7" value="" style="shape=message;html=1;whiteSpace=wrap;html=1;outlineConnect=0;sketch=1;" vertex="1" parent="1">
          <mxGeometry x="180" y="160" width="40" height="30" as="geometry" />
        </mxCell>
        <mxCell id="rF7Z-2SYWHVIbqaT1fd9-8" value="" style="shape=message;html=1;whiteSpace=wrap;html=1;outlineConnect=0;sketch=1;" vertex="1" parent="1">
          <mxGeometry x="360" y="60" width="40" height="30" as="geometry" />
        </mxCell>
        <mxCell id="rF7Z-2SYWHVIbqaT1fd9-9" value="" style="shape=message;html=1;whiteSpace=wrap;html=1;outlineConnect=0;sketch=1;" vertex="1" parent="1">
          <mxGeometry x="470" y="160" width="40" height="30" as="geometry" />
        </mxCell>
        <mxCell id="rF7Z-2SYWHVIbqaT1fd9-10" value="" style="shape=message;html=1;whiteSpace=wrap;html=1;outlineConnect=0;sketch=1;" vertex="1" parent="1">
          <mxGeometry x="540" y="160" width="40" height="30" as="geometry" />
        </mxCell>
        <mxCell id="rF7Z-2SYWHVIbqaT1fd9-11" value="" style="shape=message;html=1;whiteSpace=wrap;html=1;outlineConnect=0;sketch=1;" vertex="1" parent="1">
          <mxGeometry x="700" y="70" width="40" height="30" as="geometry" />
        </mxCell>
        <mxCell id="rF7Z-2SYWHVIbqaT1fd9-12" value="" style="shape=message;html=1;whiteSpace=wrap;html=1;outlineConnect=0;sketch=1;" vertex="1" parent="1">
          <mxGeometry x="1020" y="160" width="40" height="30" as="geometry" />
        </mxCell>
        <mxCell id="rF7Z-2SYWHVIbqaT1fd9-13" value="" style="endArrow=classic;html=1;sketch=1;" edge="1" parent="1">
          <mxGeometry width="50" height="50" relative="1" as="geometry">
            <mxPoint x="100" y="370" as="sourcePoint" />
            <mxPoint x="1090" y="370" as="targetPoint" />
          </mxGeometry>
        </mxCell>
        <mxCell id="rF7Z-2SYWHVIbqaT1fd9-14" value="&lt;font style=&quot;font-size: 25px&quot;&gt;left&lt;/font&gt;" style="text;html=1;strokeColor=none;fillColor=none;align=center;verticalAlign=middle;whiteSpace=wrap;rounded=0;" vertex="1" parent="1">
          <mxGeometry x="30" y="350" width="40" height="20" as="geometry" />
        </mxCell>
        <mxCell id="rF7Z-2SYWHVIbqaT1fd9-15" value="" style="shape=message;html=1;whiteSpace=wrap;html=1;outlineConnect=0;sketch=1;" vertex="1" parent="1">
          <mxGeometry x="150" y="320" width="40" height="30" as="geometry" />
        </mxCell>
        <mxCell id="rF7Z-2SYWHVIbqaT1fd9-16" value="" style="shape=message;html=1;whiteSpace=wrap;html=1;outlineConnect=0;sketch=1;" vertex="1" parent="1">
          <mxGeometry x="360" y="320" width="40" height="30" as="geometry" />
        </mxCell>
        <mxCell id="rF7Z-2SYWHVIbqaT1fd9-17" value="" style="shape=message;html=1;whiteSpace=wrap;html=1;outlineConnect=0;sketch=1;" vertex="1" parent="1">
          <mxGeometry x="700" y="330" width="40" height="30" as="geometry" />
        </mxCell>
        <mxCell id="rF7Z-2SYWHVIbqaT1fd9-19" value="" style="rounded=0;whiteSpace=wrap;html=1;sketch=1;fillColor=none;dashed=1;" vertex="1" parent="1">
          <mxGeometry x="330" y="20" width="280" height="220" as="geometry" />
        </mxCell>
        <mxCell id="rF7Z-2SYWHVIbqaT1fd9-21" value="" style="shape=table;html=1;whiteSpace=wrap;startSize=0;container=1;collapsible=0;childLayout=tableLayout;dashed=1;sketch=1;fillColor=none;" vertex="1" parent="1">
          <mxGeometry x="830" y="420" width="120" height="120" as="geometry" />
        </mxCell>
        <mxCell id="rF7Z-2SYWHVIbqaT1fd9-22" value="" style="shape=partialRectangle;html=1;whiteSpace=wrap;collapsible=0;dropTarget=0;pointerEvents=0;fillColor=none;top=0;left=0;bottom=0;right=0;points=[[0,0.5],[1,0.5]];portConstraint=eastwest;" vertex="1" parent="rF7Z-2SYWHVIbqaT1fd9-21">
          <mxGeometry width="120" height="40" as="geometry" />
        </mxCell>
        <mxCell id="rF7Z-2SYWHVIbqaT1fd9-23" value="" style="shape=partialRectangle;html=1;whiteSpace=wrap;connectable=0;fillColor=none;top=0;left=0;bottom=0;right=0;overflow=hidden;" vertex="1" parent="rF7Z-2SYWHVIbqaT1fd9-22">
          <mxGeometry width="60" height="40" as="geometry" />
        </mxCell>
        <mxCell id="rF7Z-2SYWHVIbqaT1fd9-24" value="" style="shape=partialRectangle;html=1;whiteSpace=wrap;connectable=0;fillColor=none;top=0;left=0;bottom=0;right=0;overflow=hidden;" vertex="1" parent="rF7Z-2SYWHVIbqaT1fd9-22">
          <mxGeometry x="60" width="60" height="40" as="geometry" />
        </mxCell>
        <mxCell id="rF7Z-2SYWHVIbqaT1fd9-26" value="" style="shape=partialRectangle;html=1;whiteSpace=wrap;collapsible=0;dropTarget=0;pointerEvents=0;fillColor=none;top=0;left=0;bottom=0;right=0;points=[[0,0.5],[1,0.5]];portConstraint=eastwest;" vertex="1" parent="rF7Z-2SYWHVIbqaT1fd9-21">
          <mxGeometry y="40" width="120" height="40" as="geometry" />
        </mxCell>
        <mxCell id="rF7Z-2SYWHVIbqaT1fd9-27" value="" style="shape=partialRectangle;html=1;whiteSpace=wrap;connectable=0;fillColor=none;top=0;left=0;bottom=0;right=0;overflow=hidden;" vertex="1" parent="rF7Z-2SYWHVIbqaT1fd9-26">
          <mxGeometry width="60" height="40" as="geometry" />
        </mxCell>
        <mxCell id="rF7Z-2SYWHVIbqaT1fd9-28" value="" style="shape=partialRectangle;html=1;whiteSpace=wrap;connectable=0;fillColor=none;top=0;left=0;bottom=0;right=0;overflow=hidden;" vertex="1" parent="rF7Z-2SYWHVIbqaT1fd9-26">
          <mxGeometry x="60" width="60" height="40" as="geometry" />
        </mxCell>
        <mxCell id="rF7Z-2SYWHVIbqaT1fd9-30" value="" style="shape=partialRectangle;html=1;whiteSpace=wrap;collapsible=0;dropTarget=0;pointerEvents=0;fillColor=none;top=0;left=0;bottom=0;right=0;points=[[0,0.5],[1,0.5]];portConstraint=eastwest;" vertex="1" parent="rF7Z-2SYWHVIbqaT1fd9-21">
          <mxGeometry y="80" width="120" height="40" as="geometry" />
        </mxCell>
        <mxCell id="rF7Z-2SYWHVIbqaT1fd9-31" value="" style="shape=partialRectangle;html=1;whiteSpace=wrap;connectable=0;fillColor=none;top=0;left=0;bottom=0;right=0;overflow=hidden;" vertex="1" parent="rF7Z-2SYWHVIbqaT1fd9-30">
          <mxGeometry width="60" height="40" as="geometry" />
        </mxCell>
        <mxCell id="rF7Z-2SYWHVIbqaT1fd9-32" value="" style="shape=partialRectangle;html=1;whiteSpace=wrap;connectable=0;fillColor=none;top=0;left=0;bottom=0;right=0;overflow=hidden;" vertex="1" parent="rF7Z-2SYWHVIbqaT1fd9-30">
          <mxGeometry x="60" width="60" height="40" as="geometry" />
        </mxCell>
        <mxCell id="rF7Z-2SYWHVIbqaT1fd9-35" value="&lt;font style=&quot;font-size: 25px&quot;&gt;time window&lt;/font&gt;" style="text;html=1;strokeColor=none;fillColor=none;align=center;verticalAlign=middle;whiteSpace=wrap;rounded=0;" vertex="1" parent="1">
          <mxGeometry x="440" y="30" width="170" height="20" as="geometry" />
        </mxCell>
        <mxCell id="rF7Z-2SYWHVIbqaT1fd9-36" value="" style="endArrow=classic;html=1;exitX=0.5;exitY=1;exitDx=0;exitDy=0;entryX=0;entryY=0.5;entryDx=0;entryDy=0;" edge="1" parent="1" source="rF7Z-2SYWHVIbqaT1fd9-15" target="rF7Z-2SYWHVIbqaT1fd9-22">
          <mxGeometry width="50" height="50" relative="1" as="geometry">
            <mxPoint x="260" y="520" as="sourcePoint" />
            <mxPoint x="310" y="470" as="targetPoint" />
            <Array as="points">
              <mxPoint x="170" y="430" />
            </Array>
          </mxGeometry>
        </mxCell>
        <mxCell id="rF7Z-2SYWHVIbqaT1fd9-37" value="" style="endArrow=classic;html=1;exitX=0.5;exitY=1;exitDx=0;exitDy=0;entryX=0;entryY=0.5;entryDx=0;entryDy=0;" edge="1" parent="1" source="rF7Z-2SYWHVIbqaT1fd9-16" target="rF7Z-2SYWHVIbqaT1fd9-30">
          <mxGeometry width="50" height="50" relative="1" as="geometry">
            <mxPoint x="330" y="520" as="sourcePoint" />
            <mxPoint x="990" y="610" as="targetPoint" />
            <Array as="points">
              <mxPoint x="380" y="510" />
            </Array>
          </mxGeometry>
        </mxCell>
        <mxCell id="rF7Z-2SYWHVIbqaT1fd9-38" value="" style="endArrow=classic;html=1;exitX=0.5;exitY=1;exitDx=0;exitDy=0;entryX=0;entryY=0.5;entryDx=0;entryDy=0;" edge="1" parent="1" source="rF7Z-2SYWHVIbqaT1fd9-17" target="rF7Z-2SYWHVIbqaT1fd9-26">
          <mxGeometry width="50" height="50" relative="1" as="geometry">
            <mxPoint x="710" y="520" as="sourcePoint" />
            <mxPoint x="1160" y="650" as="targetPoint" />
            <Array as="points">
              <mxPoint x="720" y="480" />
            </Array>
          </mxGeometry>
        </mxCell>
        <mxCell id="rF7Z-2SYWHVIbqaT1fd9-39" value="" style="shape=table;html=1;whiteSpace=wrap;startSize=0;container=1;collapsible=0;childLayout=tableLayout;dashed=1;sketch=1;fillColor=none;" vertex="1" parent="1">
          <mxGeometry x="250" y="610" width="120" height="160" as="geometry" />
        </mxCell>
        <mxCell id="rF7Z-2SYWHVIbqaT1fd9-40" value="" style="shape=partialRectangle;html=1;whiteSpace=wrap;collapsible=0;dropTarget=0;pointerEvents=0;fillColor=none;top=0;left=0;bottom=0;right=0;points=[[0,0.5],[1,0.5]];portConstraint=eastwest;" vertex="1" parent="rF7Z-2SYWHVIbqaT1fd9-39">
          <mxGeometry width="120" height="40" as="geometry" />
        </mxCell>
        <mxCell id="rF7Z-2SYWHVIbqaT1fd9-41" value="" style="shape=partialRectangle;html=1;whiteSpace=wrap;connectable=0;fillColor=none;top=0;left=0;bottom=0;right=0;overflow=hidden;" vertex="1" parent="rF7Z-2SYWHVIbqaT1fd9-40">
          <mxGeometry width="60" height="40" as="geometry" />
        </mxCell>
        <mxCell id="rF7Z-2SYWHVIbqaT1fd9-42" value="" style="shape=partialRectangle;html=1;whiteSpace=wrap;connectable=0;fillColor=none;top=0;left=0;bottom=0;right=0;overflow=hidden;" vertex="1" parent="rF7Z-2SYWHVIbqaT1fd9-40">
          <mxGeometry x="60" width="60" height="40" as="geometry" />
        </mxCell>
        <mxCell id="rF7Z-2SYWHVIbqaT1fd9-43" value="" style="shape=partialRectangle;html=1;whiteSpace=wrap;collapsible=0;dropTarget=0;pointerEvents=0;fillColor=none;top=0;left=0;bottom=0;right=0;points=[[0,0.5],[1,0.5]];portConstraint=eastwest;" vertex="1" parent="rF7Z-2SYWHVIbqaT1fd9-39">
          <mxGeometry y="40" width="120" height="40" as="geometry" />
        </mxCell>
        <mxCell id="rF7Z-2SYWHVIbqaT1fd9-44" value="" style="shape=partialRectangle;html=1;whiteSpace=wrap;connectable=0;fillColor=none;top=0;left=0;bottom=0;right=0;overflow=hidden;" vertex="1" parent="rF7Z-2SYWHVIbqaT1fd9-43">
          <mxGeometry width="60" height="40" as="geometry" />
        </mxCell>
        <mxCell id="rF7Z-2SYWHVIbqaT1fd9-45" value="" style="shape=partialRectangle;html=1;whiteSpace=wrap;connectable=0;fillColor=none;top=0;left=0;bottom=0;right=0;overflow=hidden;" vertex="1" parent="rF7Z-2SYWHVIbqaT1fd9-43">
          <mxGeometry x="60" width="60" height="40" as="geometry" />
        </mxCell>
        <mxCell id="rF7Z-2SYWHVIbqaT1fd9-46" value="" style="shape=partialRectangle;html=1;whiteSpace=wrap;collapsible=0;dropTarget=0;pointerEvents=0;fillColor=none;top=0;left=0;bottom=0;right=0;points=[[0,0.5],[1,0.5]];portConstraint=eastwest;" vertex="1" parent="rF7Z-2SYWHVIbqaT1fd9-39">
          <mxGeometry y="80" width="120" height="40" as="geometry" />
        </mxCell>
        <mxCell id="rF7Z-2SYWHVIbqaT1fd9-47" value="" style="shape=partialRectangle;html=1;whiteSpace=wrap;connectable=0;fillColor=none;top=0;left=0;bottom=0;right=0;overflow=hidden;" vertex="1" parent="rF7Z-2SYWHVIbqaT1fd9-46">
          <mxGeometry width="60" height="40" as="geometry" />
        </mxCell>
        <mxCell id="rF7Z-2SYWHVIbqaT1fd9-48" value="" style="shape=partialRectangle;html=1;whiteSpace=wrap;connectable=0;fillColor=none;top=0;left=0;bottom=0;right=0;overflow=hidden;" vertex="1" parent="rF7Z-2SYWHVIbqaT1fd9-46">
          <mxGeometry x="60" width="60" height="40" as="geometry" />
        </mxCell>
        <mxCell id="rF7Z-2SYWHVIbqaT1fd9-59" style="shape=partialRectangle;html=1;whiteSpace=wrap;collapsible=0;dropTarget=0;pointerEvents=0;fillColor=none;top=0;left=0;bottom=0;right=0;points=[[0,0.5],[1,0.5]];portConstraint=eastwest;" vertex="1" parent="rF7Z-2SYWHVIbqaT1fd9-39">
          <mxGeometry y="120" width="120" height="40" as="geometry" />
        </mxCell>
        <mxCell id="rF7Z-2SYWHVIbqaT1fd9-60" style="shape=partialRectangle;html=1;whiteSpace=wrap;connectable=0;fillColor=none;top=0;left=0;bottom=0;right=0;overflow=hidden;" vertex="1" parent="rF7Z-2SYWHVIbqaT1fd9-59">
          <mxGeometry width="60" height="40" as="geometry" />
        </mxCell>
        <mxCell id="rF7Z-2SYWHVIbqaT1fd9-61" style="shape=partialRectangle;html=1;whiteSpace=wrap;connectable=0;fillColor=none;top=0;left=0;bottom=0;right=0;overflow=hidden;" vertex="1" parent="rF7Z-2SYWHVIbqaT1fd9-59">
          <mxGeometry x="60" width="60" height="40" as="geometry" />
        </mxCell>
        <mxCell id="rF7Z-2SYWHVIbqaT1fd9-49" value="" style="shape=table;html=1;whiteSpace=wrap;startSize=0;container=1;collapsible=0;childLayout=tableLayout;dashed=1;sketch=1;fillColor=none;" vertex="1" parent="1">
          <mxGeometry x="585" y="610" width="120" height="160" as="geometry" />
        </mxCell>
        <mxCell id="rF7Z-2SYWHVIbqaT1fd9-50" value="" style="shape=partialRectangle;html=1;whiteSpace=wrap;collapsible=0;dropTarget=0;pointerEvents=0;fillColor=none;top=0;left=0;bottom=0;right=0;points=[[0,0.5],[1,0.5]];portConstraint=eastwest;" vertex="1" parent="rF7Z-2SYWHVIbqaT1fd9-49">
          <mxGeometry width="120" height="40" as="geometry" />
        </mxCell>
        <mxCell id="rF7Z-2SYWHVIbqaT1fd9-51" value="" style="shape=partialRectangle;html=1;whiteSpace=wrap;connectable=0;fillColor=none;top=0;left=0;bottom=0;right=0;overflow=hidden;" vertex="1" parent="rF7Z-2SYWHVIbqaT1fd9-50">
          <mxGeometry width="60" height="40" as="geometry" />
        </mxCell>
        <mxCell id="rF7Z-2SYWHVIbqaT1fd9-52" value="" style="shape=partialRectangle;html=1;whiteSpace=wrap;connectable=0;fillColor=none;top=0;left=0;bottom=0;right=0;overflow=hidden;" vertex="1" parent="rF7Z-2SYWHVIbqaT1fd9-50">
          <mxGeometry x="60" width="60" height="40" as="geometry" />
        </mxCell>
        <mxCell id="rF7Z-2SYWHVIbqaT1fd9-53" value="" style="shape=partialRectangle;html=1;whiteSpace=wrap;collapsible=0;dropTarget=0;pointerEvents=0;fillColor=none;top=0;left=0;bottom=0;right=0;points=[[0,0.5],[1,0.5]];portConstraint=eastwest;" vertex="1" parent="rF7Z-2SYWHVIbqaT1fd9-49">
          <mxGeometry y="40" width="120" height="40" as="geometry" />
        </mxCell>
        <mxCell id="rF7Z-2SYWHVIbqaT1fd9-54" value="" style="shape=partialRectangle;html=1;whiteSpace=wrap;connectable=0;fillColor=none;top=0;left=0;bottom=0;right=0;overflow=hidden;" vertex="1" parent="rF7Z-2SYWHVIbqaT1fd9-53">
          <mxGeometry width="60" height="40" as="geometry" />
        </mxCell>
        <mxCell id="rF7Z-2SYWHVIbqaT1fd9-55" value="" style="shape=partialRectangle;html=1;whiteSpace=wrap;connectable=0;fillColor=none;top=0;left=0;bottom=0;right=0;overflow=hidden;" vertex="1" parent="rF7Z-2SYWHVIbqaT1fd9-53">
          <mxGeometry x="60" width="60" height="40" as="geometry" />
        </mxCell>
        <mxCell id="rF7Z-2SYWHVIbqaT1fd9-56" value="" style="shape=partialRectangle;html=1;whiteSpace=wrap;collapsible=0;dropTarget=0;pointerEvents=0;fillColor=none;top=0;left=0;bottom=0;right=0;points=[[0,0.5],[1,0.5]];portConstraint=eastwest;" vertex="1" parent="rF7Z-2SYWHVIbqaT1fd9-49">
          <mxGeometry y="80" width="120" height="40" as="geometry" />
        </mxCell>
        <mxCell id="rF7Z-2SYWHVIbqaT1fd9-57" value="" style="shape=partialRectangle;html=1;whiteSpace=wrap;connectable=0;fillColor=none;top=0;left=0;bottom=0;right=0;overflow=hidden;" vertex="1" parent="rF7Z-2SYWHVIbqaT1fd9-56">
          <mxGeometry width="60" height="40" as="geometry" />
        </mxCell>
        <mxCell id="rF7Z-2SYWHVIbqaT1fd9-58" value="" style="shape=partialRectangle;html=1;whiteSpace=wrap;connectable=0;fillColor=none;top=0;left=0;bottom=0;right=0;overflow=hidden;" vertex="1" parent="rF7Z-2SYWHVIbqaT1fd9-56">
          <mxGeometry x="60" width="60" height="40" as="geometry" />
        </mxCell>
        <mxCell id="rF7Z-2SYWHVIbqaT1fd9-62" style="shape=partialRectangle;html=1;whiteSpace=wrap;collapsible=0;dropTarget=0;pointerEvents=0;fillColor=none;top=0;left=0;bottom=0;right=0;points=[[0,0.5],[1,0.5]];portConstraint=eastwest;" vertex="1" parent="rF7Z-2SYWHVIbqaT1fd9-49">
          <mxGeometry y="120" width="120" height="40" as="geometry" />
        </mxCell>
        <mxCell id="rF7Z-2SYWHVIbqaT1fd9-63" style="shape=partialRectangle;html=1;whiteSpace=wrap;connectable=0;fillColor=none;top=0;left=0;bottom=0;right=0;overflow=hidden;" vertex="1" parent="rF7Z-2SYWHVIbqaT1fd9-62">
          <mxGeometry width="60" height="40" as="geometry" />
        </mxCell>
        <mxCell id="rF7Z-2SYWHVIbqaT1fd9-64" style="shape=partialRectangle;html=1;whiteSpace=wrap;connectable=0;fillColor=none;top=0;left=0;bottom=0;right=0;overflow=hidden;" vertex="1" parent="rF7Z-2SYWHVIbqaT1fd9-62">
          <mxGeometry x="60" width="60" height="40" as="geometry" />
        </mxCell>
        <mxCell id="rF7Z-2SYWHVIbqaT1fd9-65" value="" style="endArrow=classic;html=1;sketch=1;exitX=1;exitY=0.5;exitDx=0;exitDy=0;entryX=0;entryY=0.5;entryDx=0;entryDy=0;" edge="1" parent="1" source="rF7Z-2SYWHVIbqaT1fd9-40" target="rF7Z-2SYWHVIbqaT1fd9-62">
          <mxGeometry width="50" height="50" relative="1" as="geometry">
            <mxPoint x="440" y="640" as="sourcePoint" />
            <mxPoint x="490" y="590" as="targetPoint" />
          </mxGeometry>
        </mxCell>
        <mxCell id="rF7Z-2SYWHVIbqaT1fd9-66" value="" style="endArrow=classic;html=1;sketch=1;exitX=1;exitY=0.5;exitDx=0;exitDy=0;" edge="1" parent="1" source="rF7Z-2SYWHVIbqaT1fd9-43">
          <mxGeometry width="50" height="50" relative="1" as="geometry">
            <mxPoint x="390" y="690" as="sourcePoint" />
            <mxPoint x="580" y="670" as="targetPoint" />
          </mxGeometry>
        </mxCell>
        <mxCell id="nUJC7lJtYlYjG_sd1acs-1" value="&lt;font style=&quot;font-size: 25px&quot;&gt;right&lt;/font&gt;" style="text;html=1;strokeColor=none;fillColor=none;align=center;verticalAlign=middle;whiteSpace=wrap;rounded=0;" vertex="1" parent="1">
          <mxGeometry x="30" y="460" width="40" height="20" as="geometry" />
        </mxCell>
        <mxCell id="nUJC7lJtYlYjG_sd1acs-2" value="&lt;font style=&quot;font-size: 25px&quot;&gt;left&lt;/font&gt;" style="text;html=1;strokeColor=none;fillColor=none;align=center;verticalAlign=middle;whiteSpace=wrap;rounded=0;" vertex="1" parent="1">
          <mxGeometry x="180" y="600" width="40" height="20" as="geometry" />
        </mxCell>
        <mxCell id="nUJC7lJtYlYjG_sd1acs-3" value="&lt;font style=&quot;font-size: 25px&quot;&gt;right&lt;/font&gt;" style="text;html=1;strokeColor=none;fillColor=none;align=center;verticalAlign=middle;whiteSpace=wrap;rounded=0;" vertex="1" parent="1">
          <mxGeometry x="520" y="600" width="40" height="20" as="geometry" />
        </mxCell>
      </root>
    </mxGraphModel>
  </diagram>
  <diagram id="_Y8L2sF4mWxt-jZm_v6X" name="Page-2">
    <mxGraphModel dx="1422" dy="705" grid="1" gridSize="10" guides="1" tooltips="1" connect="1" arrows="1" fold="1" page="1" pageScale="1" pageWidth="1169" pageHeight="827" math="0" shadow="0">
      <root>
        <mxCell id="PcBJk0id78fqCfrwnqEp-0" />
        <mxCell id="PcBJk0id78fqCfrwnqEp-1" parent="PcBJk0id78fqCfrwnqEp-0" />
        <mxCell id="kby8v4sScn6Tu_oJEf5d-0" value="" style="endArrow=classic;html=1;sketch=1;" edge="1" parent="PcBJk0id78fqCfrwnqEp-1">
          <mxGeometry width="50" height="50" relative="1" as="geometry">
            <mxPoint x="150" y="110" as="sourcePoint" />
            <mxPoint x="1140" y="110" as="targetPoint" />
          </mxGeometry>
        </mxCell>
        <mxCell id="kby8v4sScn6Tu_oJEf5d-1" value="" style="endArrow=classic;html=1;sketch=1;" edge="1" parent="PcBJk0id78fqCfrwnqEp-1">
          <mxGeometry width="50" height="50" relative="1" as="geometry">
            <mxPoint x="150" y="310" as="sourcePoint" />
            <mxPoint x="1140" y="310" as="targetPoint" />
          </mxGeometry>
        </mxCell>
        <mxCell id="kby8v4sScn6Tu_oJEf5d-2" value="&lt;font style=&quot;font-size: 25px&quot;&gt;orders&lt;/font&gt;" style="text;html=1;strokeColor=none;fillColor=none;align=center;verticalAlign=middle;whiteSpace=wrap;rounded=0;" vertex="1" parent="PcBJk0id78fqCfrwnqEp-1">
          <mxGeometry x="50" y="60" width="40" height="20" as="geometry" />
        </mxCell>
        <mxCell id="kby8v4sScn6Tu_oJEf5d-3" value="&lt;font style=&quot;font-size: 25px&quot;&gt;payments&lt;/font&gt;" style="text;html=1;strokeColor=none;fillColor=none;align=center;verticalAlign=middle;whiteSpace=wrap;rounded=0;" vertex="1" parent="PcBJk0id78fqCfrwnqEp-1">
          <mxGeometry x="60" y="220" width="40" height="20" as="geometry" />
        </mxCell>
        <mxCell id="kby8v4sScn6Tu_oJEf5d-4" value="" style="shape=message;html=1;whiteSpace=wrap;html=1;outlineConnect=0;sketch=1;fillColor=#dae8fc;strokeColor=#6c8ebf;" vertex="1" parent="PcBJk0id78fqCfrwnqEp-1">
          <mxGeometry x="200" y="60" width="40" height="30" as="geometry" />
        </mxCell>
        <mxCell id="kby8v4sScn6Tu_oJEf5d-5" value="" style="shape=message;html=1;whiteSpace=wrap;html=1;outlineConnect=0;sketch=1;fillColor=#f8cecc;strokeColor=#b85450;" vertex="1" parent="PcBJk0id78fqCfrwnqEp-1">
          <mxGeometry x="450" y="270" width="40" height="30" as="geometry" />
        </mxCell>
        <mxCell id="kby8v4sScn6Tu_oJEf5d-6" value="" style="shape=message;html=1;whiteSpace=wrap;html=1;outlineConnect=0;sketch=1;fillColor=#f8cecc;strokeColor=#b85450;" vertex="1" parent="PcBJk0id78fqCfrwnqEp-1">
          <mxGeometry x="300" y="60" width="40" height="30" as="geometry" />
        </mxCell>
        <mxCell id="kby8v4sScn6Tu_oJEf5d-7" value="" style="shape=message;html=1;whiteSpace=wrap;html=1;outlineConnect=0;sketch=1;fillColor=#dae8fc;strokeColor=#6c8ebf;" vertex="1" parent="PcBJk0id78fqCfrwnqEp-1">
          <mxGeometry x="640" y="270" width="40" height="30" as="geometry" />
        </mxCell>
        <mxCell id="kby8v4sScn6Tu_oJEf5d-8" value="" style="shape=message;html=1;whiteSpace=wrap;html=1;outlineConnect=0;sketch=1;fillColor=#d5e8d4;strokeColor=#82b366;" vertex="1" parent="PcBJk0id78fqCfrwnqEp-1">
          <mxGeometry x="840" y="270" width="40" height="30" as="geometry" />
        </mxCell>
        <mxCell id="kby8v4sScn6Tu_oJEf5d-9" value="" style="shape=message;html=1;whiteSpace=wrap;html=1;outlineConnect=0;sketch=1;fillColor=#d5e8d4;strokeColor=#82b366;" vertex="1" parent="PcBJk0id78fqCfrwnqEp-1">
          <mxGeometry x="480" y="60" width="40" height="30" as="geometry" />
        </mxCell>
        <mxCell id="kby8v4sScn6Tu_oJEf5d-10" value="" style="shape=message;html=1;whiteSpace=wrap;html=1;outlineConnect=0;sketch=1;fillColor=#f5f5f5;strokeColor=#666666;fontColor=#333333;" vertex="1" parent="PcBJk0id78fqCfrwnqEp-1">
          <mxGeometry x="1070" y="270" width="40" height="30" as="geometry" />
        </mxCell>
        <mxCell id="kby8v4sScn6Tu_oJEf5d-13" value="" style="shape=message;html=1;whiteSpace=wrap;html=1;outlineConnect=0;sketch=1;fillColor=#f5f5f5;strokeColor=#666666;fontColor=#333333;" vertex="1" parent="PcBJk0id78fqCfrwnqEp-1">
          <mxGeometry x="770" y="70" width="40" height="30" as="geometry" />
        </mxCell>
        <mxCell id="kby8v4sScn6Tu_oJEf5d-15" value="" style="endArrow=classic;html=1;sketch=1;" edge="1" parent="PcBJk0id78fqCfrwnqEp-1">
          <mxGeometry width="50" height="50" relative="1" as="geometry">
            <mxPoint x="150" y="610" as="sourcePoint" />
            <mxPoint x="1140" y="610" as="targetPoint" />
          </mxGeometry>
        </mxCell>
        <mxCell id="kby8v4sScn6Tu_oJEf5d-16" value="&lt;font style=&quot;font-size: 25px&quot;&gt;orders&lt;br&gt;&amp;amp;&lt;br&gt;payments&lt;br&gt;&lt;/font&gt;" style="text;html=1;strokeColor=none;fillColor=none;align=center;verticalAlign=middle;whiteSpace=wrap;rounded=0;" vertex="1" parent="PcBJk0id78fqCfrwnqEp-1">
          <mxGeometry x="50" y="520" width="40" height="20" as="geometry" />
        </mxCell>
        <mxCell id="kby8v4sScn6Tu_oJEf5d-17" value="" style="endArrow=classic;html=1;sketch=1;" edge="1" parent="PcBJk0id78fqCfrwnqEp-1">
          <mxGeometry width="50" height="50" relative="1" as="geometry">
            <mxPoint x="250" y="90" as="sourcePoint" />
            <mxPoint x="630" y="260" as="targetPoint" />
          </mxGeometry>
        </mxCell>
        <mxCell id="kby8v4sScn6Tu_oJEf5d-18" value="" style="endArrow=classic;html=1;sketch=1;" edge="1" parent="PcBJk0id78fqCfrwnqEp-1">
          <mxGeometry width="50" height="50" relative="1" as="geometry">
            <mxPoint x="350" y="90" as="sourcePoint" />
            <mxPoint x="440" y="280" as="targetPoint" />
          </mxGeometry>
        </mxCell>
        <mxCell id="kby8v4sScn6Tu_oJEf5d-19" value="" style="endArrow=classic;html=1;sketch=1;" edge="1" parent="PcBJk0id78fqCfrwnqEp-1">
          <mxGeometry width="50" height="50" relative="1" as="geometry">
            <mxPoint x="530" y="80" as="sourcePoint" />
            <mxPoint x="850" y="260" as="targetPoint" />
          </mxGeometry>
        </mxCell>
        <mxCell id="kby8v4sScn6Tu_oJEf5d-20" value="" style="endArrow=classic;html=1;sketch=1;" edge="1" parent="PcBJk0id78fqCfrwnqEp-1">
          <mxGeometry width="50" height="50" relative="1" as="geometry">
            <mxPoint x="820" y="90" as="sourcePoint" />
            <mxPoint x="1090" y="260" as="targetPoint" />
          </mxGeometry>
        </mxCell>
        <mxCell id="kby8v4sScn6Tu_oJEf5d-21" value="" style="shape=message;html=1;whiteSpace=wrap;html=1;outlineConnect=0;sketch=1;fillColor=#f8cecc;strokeColor=#b85450;" vertex="1" parent="PcBJk0id78fqCfrwnqEp-1">
          <mxGeometry x="450" y="560" width="40" height="30" as="geometry" />
        </mxCell>
        <mxCell id="kby8v4sScn6Tu_oJEf5d-22" value="" style="shape=message;html=1;whiteSpace=wrap;html=1;outlineConnect=0;sketch=1;fillColor=#dae8fc;strokeColor=#6c8ebf;" vertex="1" parent="PcBJk0id78fqCfrwnqEp-1">
          <mxGeometry x="640" y="560" width="40" height="30" as="geometry" />
        </mxCell>
        <mxCell id="kby8v4sScn6Tu_oJEf5d-23" value="" style="shape=message;html=1;whiteSpace=wrap;html=1;outlineConnect=0;sketch=1;fillColor=#d5e8d4;strokeColor=#82b366;" vertex="1" parent="PcBJk0id78fqCfrwnqEp-1">
          <mxGeometry x="840" y="560" width="40" height="30" as="geometry" />
        </mxCell>
        <mxCell id="kby8v4sScn6Tu_oJEf5d-24" value="" style="shape=message;html=1;whiteSpace=wrap;html=1;outlineConnect=0;sketch=1;fillColor=#f5f5f5;strokeColor=#666666;fontColor=#333333;" vertex="1" parent="PcBJk0id78fqCfrwnqEp-1">
          <mxGeometry x="1070" y="560" width="40" height="30" as="geometry" />
        </mxCell>
        <mxCell id="kby8v4sScn6Tu_oJEf5d-25" value="" style="endArrow=classic;html=1;sketch=1;" edge="1" parent="PcBJk0id78fqCfrwnqEp-1">
          <mxGeometry width="50" height="50" relative="1" as="geometry">
            <mxPoint x="470" y="330" as="sourcePoint" />
            <mxPoint x="470" y="550" as="targetPoint" />
          </mxGeometry>
        </mxCell>
        <mxCell id="kby8v4sScn6Tu_oJEf5d-26" value="" style="endArrow=classic;html=1;sketch=1;" edge="1" parent="PcBJk0id78fqCfrwnqEp-1">
          <mxGeometry width="50" height="50" relative="1" as="geometry">
            <mxPoint x="659.5" y="330" as="sourcePoint" />
            <mxPoint x="659.5" y="550" as="targetPoint" />
          </mxGeometry>
        </mxCell>
        <mxCell id="kby8v4sScn6Tu_oJEf5d-27" value="" style="endArrow=classic;html=1;sketch=1;" edge="1" parent="PcBJk0id78fqCfrwnqEp-1">
          <mxGeometry width="50" height="50" relative="1" as="geometry">
            <mxPoint x="859.5" y="330" as="sourcePoint" />
            <mxPoint x="859.5" y="550" as="targetPoint" />
          </mxGeometry>
        </mxCell>
        <mxCell id="kby8v4sScn6Tu_oJEf5d-28" value="" style="endArrow=classic;html=1;sketch=1;" edge="1" parent="PcBJk0id78fqCfrwnqEp-1">
          <mxGeometry width="50" height="50" relative="1" as="geometry">
            <mxPoint x="1089.5" y="330" as="sourcePoint" />
            <mxPoint x="1089.5" y="550" as="targetPoint" />
          </mxGeometry>
        </mxCell>
      </root>
    </mxGraphModel>
  </diagram>
</mxfile>
